RobotoAvar2-XTRA605.ufo
<glyph name="quotedbl" format="2">
  <advance width="810"/>
  <unicode hex="0022"/>
  <outline>
    <contour>
      <point x="115" y="966" type="line"/>
      <point x="100" y="1320" type="line"/>
      <point x="100" y="1456" type="line"/>
      <point x="280" y="1456" type="line"/>
      <point x="280" y="1320" type="line"/>
      <point x="265" y="966" type="line"/>
    </contour>
    <contour>
      <point x="545" y="966" type="line"/>
      <point x="530" y="1320" type="line"/>
      <point x="530" y="1456" type="line"/>
      <point x="710" y="1456" type="line"/>
      <point x="710" y="1320" type="line"/>
      <point x="695" y="966" type="line"/>
    </contour>
  </outline>
</glyph>
<glyph name="numbersign" format="2">
  <advance width="1651"/>
  <unicode hex="0023"/>
  <outline>
    <contour>
      <point x="216" y="-20" type="line"/>
      <point x="653" y="1501" type="line"/>
      <point x="797" y="1501" type="line"/>
      <point x="360" y="-20" type="line"/>
    </contour>
    <contour>
      <point x="829" y="-20" type="line"/>
      <point x="1266" y="1501" type="line"/>
      <point x="1410" y="1501" type="line"/>
      <point x="973" y="-20" type="line"/>
    </contour>
    <contour>
      <point x="64" y="404" type="line"/>
      <point x="64" y="542" type="line"/>
      <point x="1512" y="542" type="line"/>
      <point x="1512" y="404" type="line"/>
    </contour>
    <contour>
      <point x="115" y="939" type="line"/>
      <point x="115" y="1077" type="line"/>
      <point x="1562" y="1077" type="line"/>
      <point x="1562" y="939" type="line"/>
    </contour>
  </outline>
</glyph>
<glyph name="dollar" format="2">
  <advance width="1265"/>
  <unicode hex="0024"/>
  <outline>
    <contour>
      <point x="21" y="381" type="qcurve" smooth="yes"/>
      <point x="21" y="392" type="line"/>
      <point x="198" y="392" type="line"/>
      <point x="198" y="381" type="line" smooth="yes"/>
      <point x="198" y="261"/>
      <point x="427" y="143"/>
      <point x="633" y="143" type="qcurve" smooth="yes"/>
      <point x="837" y="143"/>
      <point x="1057" y="265"/>
      <point x="1057" y="365" type="qcurve" smooth="yes"/>
      <point x="1057" y="475"/>
      <point x="861" y="605"/>
      <point x="569" y="656" type="qcurve" smooth="yes"/>
      <point x="277" y="707"/>
      <point x="49" y="926"/>
      <point x="49" y="1079" type="qcurve" smooth="yes"/>
      <point x="49" y="1244"/>
      <point x="349" y="1458"/>
      <point x="613" y="1458" type="qcurve" smooth="yes"/>
      <point x="879" y="1458"/>
      <point x="1193" y="1235"/>
      <point x="1193" y="1076" type="qcurve" smooth="yes"/>
      <point x="1193" y="1065" type="line"/>
      <point x="1016" y="1065" type="line"/>
      <point x="1016" y="1076" type="line" smooth="yes"/>
      <point x="1016" y="1181"/>
      <point x="813" y="1308"/>
      <point x="613" y="1308" type="qcurve" smooth="yes"/>
      <point x="413" y="1308"/>
      <point x="224" y="1199"/>
      <point x="224" y="1099" type="qcurve" smooth="yes"/>
      <point x="224" y="998"/>
      <point x="416" y="857"/>
      <point x="708" y="802" type="qcurve" smooth="yes"/>
      <point x="1000" y="747"/>
      <point x="1232" y="547"/>
      <point x="1232" y="385" type="qcurve" smooth="yes"/>
      <point x="1232" y="216"/>
      <point x="909" y="-6"/>
      <point x="633" y="-6" type="qcurve" smooth="yes"/>
      <point x="356" y="-6"/>
      <point x="21" y="202"/>
    </contour>
    <contour>
      <point x="556" y="-170" type="line"/>
      <point x="556" y="758" type="line"/>
      <point x="692" y="758" type="line"/>
      <point x="692" y="680" type="line"/>
      <point x="706" y="670" type="line"/>
      <point x="706" y="-170" type="line"/>
    </contour>
    <contour>
      <point x="570" y="758" type="line"/>
      <point x="570" y="1386" type="line"/>
      <point x="556" y="1396" type="line"/>
      <point x="556" y="1586" type="line"/>
      <point x="706" y="1586" type="line"/>
      <point x="706" y="758" type="line"/>
    </contour>
  </outline>
</glyph>
<glyph name="parenleft" format="2">
  <advance width="823"/>
  <unicode hex="0028"/>
  <outline>
    <contour>
      <point x="787" y="-436" type="line"/>
      <point x="511" y="-332"/>
      <point x="124" y="140"/>
      <point x="124" y="515" type="qcurve" smooth="yes"/>
      <point x="124" y="525" type="line" smooth="yes"/>
      <point x="124" y="917"/>
      <point x="526" y="1385"/>
      <point x="787" y="1476" type="qcurve"/>
      <point x="785" y="1296" type="line"/>
      <point x="617" y="1220"/>
      <point x="319" y="861"/>
      <point x="319" y="532" type="qcurve" smooth="yes"/>
      <point x="319" y="508" type="line" smooth="yes"/>
      <point x="319" y="193"/>
      <point x="617" y="-180"/>
      <point x="785" y="-256" type="qcurve"/>
    </contour>
  </outline>
</glyph>
<glyph name="parenright" format="2">
  <advance width="823"/>
  <unicode hex="0029"/>
  <outline>
    <contour>
      <point x="36" y="-436" type="qcurve"/>
      <point x="38" y="-256" type="line"/>
      <point x="206" y="-180"/>
      <point x="504" y="193"/>
      <point x="504" y="508" type="qcurve" smooth="yes"/>
      <point x="504" y="532" type="line" smooth="yes"/>
      <point x="504" y="861"/>
      <point x="206" y="1220"/>
      <point x="38" y="1296" type="qcurve"/>
      <point x="36" y="1476" type="line"/>
      <point x="311" y="1376"/>
      <point x="699" y="917"/>
      <point x="699" y="525" type="qcurve" smooth="yes"/>
      <point x="699" y="515" type="line" smooth="yes"/>
      <point x="699" y="140"/>
      <point x="299" y="-333"/>
    </contour>
  </outline>
</glyph>
<glyph name="asterisk" format="2">
  <advance width="1190"/>
  <unicode hex="002A"/>
  <outline>
    <contour>
      <point x="58" y="997" type="line"/>
      <point x="117" y="1177" type="line"/>
      <point x="538" y="999" type="line"/>
      <point x="500" y="1476" type="line"/>
      <point x="690" y="1476" type="line"/>
      <point x="652" y="999" type="line"/>
      <point x="1073" y="1177" type="line"/>
      <point x="1132" y="997" type="line"/>
      <point x="688" y="889" type="line"/>
      <point x="992" y="531" type="line"/>
      <point x="838" y="419" type="line"/>
      <point x="595" y="823" type="line"/>
      <point x="352" y="419" type="line"/>
      <point x="198" y="531" type="line"/>
      <point x="502" y="889" type="line"/>
    </contour>
  </outline>
</glyph>
<glyph name="plus" format="2">
  <advance width="1284"/>
  <unicode hex="002B"/>
  <outline>
    <contour>
      <point x="57" y="591" type="line"/>
      <point x="57" y="755" type="line"/>
      <point x="1227" y="755" type="line"/>
      <point x="1227" y="591" type="line"/>
    </contour>
    <contour>
      <point x="552" y="58" type="line"/>
      <point x="552" y="1290" type="line"/>
      <point x="732" y="1290" type="line"/>
      <point x="732" y="58" type="line"/>
    </contour>
  </outline>
</glyph>
<glyph name="three" format="2">
  <advance width="1367"/>
  <unicode hex="0033"/>
  <outline>
    <contour>
      <point x="70" y="380" type="qcurve" smooth="yes"/>
      <point x="70" y="390" type="line"/>
      <point x="256" y="390" type="line"/>
      <point x="256" y="380" type="line" smooth="yes"/>
      <point x="256" y="260"/>
      <point x="477" y="128"/>
      <point x="660" y="128" type="qcurve" smooth="yes"/>
      <point x="843" y="128"/>
      <point x="1061" y="260"/>
      <point x="1061" y="400" type="qcurve" smooth="yes"/>
      <point x="1061" y="540"/>
      <point x="815" y="682"/>
      <point x="608" y="682" type="qcurve" smooth="yes"/>
      <point x="395" y="682" type="line"/>
      <point x="395" y="836" type="line"/>
      <point x="578" y="836" type="line" smooth="yes"/>
      <point x="769" y="836"/>
      <point x="977" y="970"/>
      <point x="977" y="1090" type="qcurve" smooth="yes"/>
      <point x="977" y="1210"/>
      <point x="797" y="1328"/>
      <point x="645" y="1328" type="qcurve" smooth="yes"/>
      <point x="484" y="1328"/>
      <point x="296" y="1210"/>
      <point x="296" y="1100" type="qcurve" smooth="yes"/>
      <point x="296" y="1090" type="line"/>
      <point x="110" y="1090" type="line"/>
      <point x="110" y="1100" type="line" smooth="yes"/>
      <point x="110" y="1260"/>
      <point x="406" y="1486"/>
      <point x="643" y="1486" type="qcurve" smooth="yes"/>
      <point x="876" y="1486"/>
      <point x="1170" y="1270"/>
      <point x="1170" y="1100" type="qcurve" smooth="yes"/>
      <point x="1170" y="1000"/>
      <point x="1036" y="816"/>
      <point x="896" y="766" type="qcurve"/>
      <point x="897" y="762" type="line"/>
      <point x="1059" y="730"/>
      <point x="1255" y="540"/>
      <point x="1255" y="401" type="qcurve" smooth="yes"/>
      <point x="1255" y="200"/>
      <point x="918" y="-30"/>
      <point x="659" y="-30" type="qcurve" smooth="yes"/>
      <point x="385" y="-30"/>
      <point x="70" y="200"/>
    </contour>
  </outline>
</glyph>
<glyph name="five" format="2">
  <advance width="1367"/>
  <unicode hex="0035"/>
  <outline>
    <contour>
      <point x="100" y="365" type="qcurve" smooth="yes"/>
      <point x="100" y="375" type="line"/>
      <point x="285" y="375" type="line"/>
      <point x="285" y="365" type="line" smooth="yes"/>
      <point x="285" y="255"/>
      <point x="500" y="128"/>
      <point x="679" y="128" type="qcurve" smooth="yes"/>
      <point x="858" y="128"/>
      <point x="1088" y="305"/>
      <point x="1088" y="465" type="qcurve" smooth="yes"/>
      <point x="1088" y="625"/>
      <point x="858" y="793"/>
      <point x="679" y="793" type="qcurve" smooth="yes"/>
      <point x="555" y="793"/>
      <point x="365" y="728"/>
      <point x="282" y="668" type="qcurve"/>
      <point x="150" y="730" type="line"/>
      <point x="224" y="1456" type="line"/>
      <point x="1184" y="1456" type="line"/>
      <point x="1184" y="1286" type="line"/>
      <point x="380" y="1286" type="line"/>
      <point x="337" y="876" type="line"/>
      <point x="404" y="906"/>
      <point x="585" y="952"/>
      <point x="693" y="952" type="qcurve" smooth="yes"/>
      <point x="950" y="952"/>
      <point x="1278" y="695"/>
      <point x="1278" y="465" type="qcurve" smooth="yes"/>
      <point x="1278" y="235"/>
      <point x="938" y="-30"/>
      <point x="679" y="-30" type="qcurve" smooth="yes"/>
      <point x="403" y="-30"/>
      <point x="100" y="195"/>
    </contour>
  </outline>
</glyph>
<glyph name="seven" format="2">
  <advance width="1367"/>
  <unicode hex="0037"/>
  <outline>
    <contour>
      <point x="304" y="0" type="line"/>
      <point x="1028" y="1295" type="line"/>
      <point x="88" y="1295" type="line"/>
      <point x="88" y="1456" type="line"/>
      <point x="1228" y="1456" type="line"/>
      <point x="1228" y="1352" type="line"/>
      <point x="500" y="0" type="line"/>
    </contour>
  </outline>
</glyph>
<glyph name="eight" format="2">
  <advance width="1367"/>
  <unicode hex="0038"/>
  <outline>
    <contour>
      <point x="100" y="386" type="qcurve" smooth="yes"/>
      <point x="100" y="516"/>
      <point x="276" y="701"/>
      <point x="414" y="746" type="qcurve"/>
      <point x="414" y="750" type="line"/>
      <point x="308" y="793"/>
      <point x="156" y="967"/>
      <point x="156" y="1087" type="qcurve" smooth="yes"/>
      <point x="156" y="1267"/>
      <point x="464" y="1486"/>
      <point x="685" y="1486" type="qcurve" smooth="yes"/>
      <point x="907" y="1486"/>
      <point x="1211" y="1269"/>
      <point x="1211" y="1087" type="qcurve" smooth="yes"/>
      <point x="1211" y="967"/>
      <point x="1060" y="793"/>
      <point x="955" y="750" type="qcurve"/>
      <point x="955" y="746" type="line"/>
      <point x="1092" y="701"/>
      <point x="1267" y="516"/>
      <point x="1267" y="386" type="qcurve" smooth="yes"/>
      <point x="1267" y="188"/>
      <point x="932" y="-30"/>
      <point x="685" y="-30" type="qcurve" smooth="yes"/>
      <point x="439" y="-30"/>
      <point x="100" y="188"/>
    </contour>
    <contour>
      <point x="288" y="396" type="qcurve" smooth="yes"/>
      <point x="288" y="276"/>
      <point x="505" y="128"/>
      <point x="685" y="128" type="qcurve" smooth="yes"/>
      <point x="865" y="128"/>
      <point x="1079" y="276"/>
      <point x="1079" y="396" type="qcurve" smooth="yes"/>
      <point x="1079" y="516"/>
      <point x="865" y="666"/>
      <point x="685" y="666" type="qcurve" smooth="yes"/>
      <point x="505" y="666"/>
      <point x="288" y="516"/>
    </contour>
    <contour>
      <point x="346" y="1077" type="qcurve" smooth="yes"/>
      <point x="346" y="967"/>
      <point x="533" y="824"/>
      <point x="685" y="824" type="qcurve" smooth="yes"/>
      <point x="837" y="824"/>
      <point x="1021" y="967"/>
      <point x="1021" y="1077" type="qcurve" smooth="yes"/>
      <point x="1021" y="1187"/>
      <point x="837" y="1328"/>
      <point x="685" y="1328" type="qcurve" smooth="yes"/>
      <point x="533" y="1328"/>
      <point x="346" y="1187"/>
    </contour>
  </outline>
</glyph>
<glyph name="nine" format="2">
  <advance width="1367"/>
  <unicode hex="0039"/>
  <outline>
    <contour>
      <point x="63" y="992" type="qcurve" smooth="yes"/>
      <point x="63" y="1212"/>
      <point x="400" y="1486"/>
      <point x="657" y="1486" type="qcurve" smooth="yes"/>
      <point x="916" y="1486"/>
      <point x="1286" y="1182"/>
      <point x="1286" y="842" type="qcurve" smooth="yes"/>
      <point x="1286" y="812" type="line" smooth="yes"/>
      <point x="1286" y="432"/>
      <point x="779" y="0"/>
      <point x="313" y="0" type="qcurve" smooth="yes"/>
      <point x="288" y="0" type="line"/>
      <point x="288" y="158" type="line"/>
      <point x="313" y="158" type="line" smooth="yes"/>
      <point x="656" y="158"/>
      <point x="1098" y="452"/>
      <point x="1098" y="802" type="qcurve" smooth="yes"/>
      <point x="1098" y="852" type="line" smooth="yes"/>
      <point x="1098" y="1112"/>
      <point x="846" y="1328"/>
      <point x="655" y="1328" type="qcurve" smooth="yes"/>
      <point x="463" y="1328"/>
      <point x="253" y="1152"/>
      <point x="253" y="992" type="qcurve" smooth="yes"/>
      <point x="253" y="832"/>
      <point x="463" y="658"/>
      <point x="655" y="658" type="qcurve" smooth="yes"/>
      <point x="833" y="658"/>
      <point x="1104" y="832"/>
      <point x="1104" y="992" type="qcurve"/>
      <point x="1174" y="992" type="line"/>
      <point x="1174" y="772"/>
      <point x="854" y="500"/>
      <point x="609" y="500" type="qcurve" smooth="yes"/>
      <point x="363" y="500"/>
      <point x="63" y="772"/>
    </contour>
  </outline>
</glyph>
<glyph name="greater" format="2">
  <advance width="1284"/>
  <unicode hex="003E"/>
  <outline>
    <contour>
      <point x="106" y="221" type="line"/>
      <point x="106" y="417" type="line"/>
      <point x="914" y="677" type="line"/>
      <point x="106" y="927" type="line"/>
      <point x="106" y="1123" type="line"/>
      <point x="1184" y="744" type="line"/>
      <point x="1184" y="600" type="line"/>
    </contour>
  </outline>
</glyph>
<glyph name="question" format="2">
  <advance width="1155"/>
  <unicode hex="003F"/>
  <outline>
    <contour>
      <point x="391" y="97" type="qcurve" smooth="yes"/>
      <point x="391" y="146"/>
      <point x="455" y="216"/>
      <point x="515" y="216" type="qcurve" smooth="yes"/>
      <point x="575" y="216"/>
      <point x="639" y="146"/>
      <point x="639" y="97" type="qcurve" smooth="yes"/>
      <point x="639" y="48"/>
      <point x="575" y="-22"/>
      <point x="515" y="-22" type="qcurve" smooth="yes"/>
      <point x="455" y="-22"/>
      <point x="391" y="48"/>
    </contour>
    <contour>
      <point x="60" y="1095" type="line"/>
      <point x="60" y="1115" type="line" smooth="yes"/>
      <point x="60" y="1280"/>
      <point x="327" y="1476"/>
      <point x="572" y="1476" type="qcurve" smooth="yes"/>
      <point x="802" y="1476"/>
      <point x="1061" y="1270"/>
      <point x="1061" y="1100" type="qcurve" smooth="yes"/>
      <point x="1061" y="966"/>
      <point x="892" y="762"/>
      <point x="803" y="690" type="qcurve" smooth="yes"/>
      <point x="718" y="621"/>
      <point x="587" y="490"/>
      <point x="587" y="420" type="qcurve" smooth="yes"/>
      <point x="587" y="410" type="line"/>
      <point x="421" y="410" type="line"/>
      <point x="421" y="420" type="line" smooth="yes"/>
      <point x="421" y="545"/>
      <point x="532" y="689"/>
      <point x="649" y="783" type="qcurve" smooth="yes"/>
      <point x="748" y="864"/>
      <point x="875" y="1000"/>
      <point x="875" y="1100" type="qcurve" smooth="yes"/>
      <point x="875" y="1200"/>
      <point x="725" y="1314"/>
      <point x="572" y="1314" type="qcurve" smooth="yes"/>
      <point x="405" y="1314"/>
      <point x="245" y="1210"/>
      <point x="245" y="1115" type="qcurve" smooth="yes"/>
      <point x="245" y="1095" type="line"/>
    </contour>
  </outline>
</glyph>
<glyph name="at" format="2">
  <advance width="2674"/>
  <unicode hex="0040"/>
  <outline>
    <contour>
      <point x="720" y="400" type="qcurve" smooth="yes"/>
      <point x="720" y="680"/>
      <point x="1099" y="1052"/>
      <point x="1343" y="1052" type="qcurve" smooth="yes"/>
      <point x="1458" y="1052"/>
      <point x="1632" y="985"/>
      <point x="1682" y="946" type="qcurve"/>
      <point x="1832" y="946" type="line"/>
      <point x="1709" y="350" type="line" smooth="yes"/>
      <point x="1684" y="230"/>
      <point x="1822" y="136"/>
      <point x="1959" y="136" type="qcurve" smooth="yes"/>
      <point x="2140" y="136"/>
      <point x="2382" y="420"/>
      <point x="2382" y="650" type="qcurve" smooth="yes"/>
      <point x="2382" y="920"/>
      <point x="1865" y="1330"/>
      <point x="1399" y="1330" type="qcurve" smooth="yes"/>
      <point x="932" y="1330"/>
      <point x="301" y="820"/>
      <point x="301" y="460" type="qcurve" smooth="yes"/>
      <point x="301" y="100"/>
      <point x="850" y="-290"/>
      <point x="1262" y="-290" type="qcurve"/>
      <point x="1596" y="-290"/>
      <point x="1873" y="-237"/>
      <point x="1985" y="-200" type="qcurve"/>
      <point x="1985" y="-356" type="line"/>
      <point x="1866" y="-400"/>
      <point x="1448" y="-446"/>
      <point x="1266" y="-446" type="qcurve" smooth="yes"/>
      <point x="798" y="-446"/>
      <point x="114" y="40"/>
      <point x="114" y="460" type="qcurve" smooth="yes"/>
      <point x="114" y="880"/>
      <point x="876" y="1486"/>
      <point x="1396" y="1486" type="qcurve" smooth="yes"/>
      <point x="1916" y="1486"/>
      <point x="2560" y="1000"/>
      <point x="2560" y="650" type="qcurve" smooth="yes"/>
      <point x="2560" y="360"/>
      <point x="2202" y="0"/>
      <point x="1942" y="0" type="qcurve" smooth="yes"/>
      <point x="1761" y="0"/>
      <point x="1566" y="88"/>
      <point x="1518" y="180" type="qcurve"/>
      <point x="1451" y="102"/>
      <point x="1214" y="0"/>
      <point x="1111" y="0" type="qcurve" smooth="yes"/>
      <point x="932" y="0"/>
      <point x="720" y="220"/>
    </contour>
    <contour>
      <point x="914" y="400" type="qcurve" smooth="yes"/>
      <point x="914" y="280"/>
      <point x="1047" y="156"/>
      <point x="1172" y="156" type="qcurve" smooth="yes"/>
      <point x="1281" y="156"/>
      <point x="1515" y="259"/>
      <point x="1540" y="390" type="qcurve" smooth="yes"/>
      <point x="1642" y="870" type="line"/>
      <point x="1608" y="890"/>
      <point x="1484" y="912"/>
      <point x="1421" y="912" type="qcurve" smooth="yes"/>
      <point x="1201" y="912"/>
      <point x="914" y="620"/>
    </contour>
  </outline>
</glyph>
<glyph name="A" format="2">
  <advance width="1633"/>
  <unicode hex="0041"/>
  <anchor x="642" y="0" name="bottom"/>
  <anchor x="1176" y="0" name="ogonek"/>
  <anchor x="642" y="1456" name="top"/>
  <anchor x="265" y="1074" name="tonos"/>
  <outline>
    <contour>
      <point x="0" y="0" type="line"/>
      <point x="726" y="1466" type="line"/>
      <point x="898" y="1466" type="line"/>
      <point x="1633" y="0" type="line"/>
      <point x="1422" y="0" type="line"/>
      <point x="851" y="1157" type="line" smooth="yes"/>
      <point x="835" y="1189"/>
      <point x="822" y="1252"/>
      <point x="815" y="1285" type="qcurve"/>
      <point x="805" y="1285" type="line"/>
      <point x="798" y="1252"/>
      <point x="782" y="1188"/>
      <point x="767" y="1157" type="qcurve" smooth="yes"/>
      <point x="200" y="0" type="line"/>
    </contour>
    <contour>
      <point x="290" y="380" type="line"/>
      <point x="369" y="538" type="line"/>
      <point x="1263" y="538" type="line"/>
      <point x="1341" y="380" type="line"/>
    </contour>
  </outline>
</glyph>
<glyph name="B" format="2">
  <advance width="1497"/>
  <unicode hex="0042"/>
  <anchor x="747" y="0" name="bottom"/>
  <anchor x="747" y="1456" name="top"/>
  <outline>
    <contour>
      <point x="170" y="0" type="line"/>
      <point x="170" y="1456" type="line"/>
      <point x="887" y="1456" type="line" smooth="yes"/>
      <point x="1107" y="1456"/>
      <point x="1359" y="1270"/>
      <point x="1359" y="1070" type="qcurve" smooth="yes"/>
      <point x="1359" y="950"/>
      <point x="1237" y="800"/>
      <point x="1147" y="768" type="qcurve"/>
      <point x="1147" y="764" type="line"/>
      <point x="1257" y="732"/>
      <point x="1397" y="560"/>
      <point x="1397" y="420" type="qcurve" smooth="yes"/>
      <point x="1397" y="220"/>
      <point x="1134" y="0"/>
      <point x="917" y="0" type="qcurve" smooth="yes"/>
    </contour>
    <contour>
      <point x="358" y="158" type="line"/>
      <point x="917" y="158" type="line" smooth="yes"/>
      <point x="1067" y="158"/>
      <point x="1207" y="300"/>
      <point x="1207" y="420" type="qcurve" smooth="yes"/>
      <point x="1207" y="540"/>
      <point x="1067" y="680"/>
      <point x="917" y="680" type="qcurve" smooth="yes"/>
      <point x="278" y="680" type="line"/>
      <point x="278" y="836" type="line"/>
      <point x="887" y="836" type="line" smooth="yes"/>
      <point x="1037" y="836"/>
      <point x="1169" y="960"/>
      <point x="1169" y="1070" type="qcurve" smooth="yes"/>
      <point x="1169" y="1180"/>
      <point x="1037" y="1298"/>
      <point x="887" y="1298" type="qcurve" smooth="yes"/>
      <point x="358" y="1298" type="line"/>
    </contour>
  </outline>
</glyph>
<glyph name="D" format="2">
  <advance width="1640"/>
  <unicode hex="0044"/>
  <anchor x="795" y="0" name="bottom"/>
  <anchor x="322" y="728" name="center"/>
  <anchor x="795" y="1456" name="top"/>
  <outline>
    <contour>
      <point x="170" y="0" type="line"/>
      <point x="170" y="1456" type="line"/>
      <point x="710" y="1456" type="line" smooth="yes"/>
      <point x="1080" y="1456"/>
      <point x="1525" y="1082"/>
      <point x="1525" y="730" type="qcurve" smooth="yes"/>
      <point x="1525" y="714" type="line" smooth="yes"/>
      <point x="1525" y="387"/>
      <point x="1080" y="0"/>
      <point x="710" y="0" type="qcurve" smooth="yes"/>
    </contour>
    <contour>
      <point x="362" y="158" type="line"/>
      <point x="695" y="158" type="line" smooth="yes"/>
      <point x="986" y="158"/>
      <point x="1331" y="452"/>
      <point x="1331" y="713" type="qcurve" smooth="yes"/>
      <point x="1331" y="742" type="line" smooth="yes"/>
      <point x="1331" y="1003"/>
      <point x="986" y="1298"/>
      <point x="695" y="1298" type="qcurve" smooth="yes"/>
      <point x="362" y="1298" type="line"/>
    </contour>
  </outline>
</glyph>
<glyph name="E" format="2">
  <advance width="1372"/>
  <unicode hex="0045"/>
  <anchor x="630" y="0" name="bottom"/>
  <anchor x="1094" y="0" name="ogonek"/>
  <anchor x="645" y="1456" name="top"/>
  <anchor x="-75" y="1074" name="tonos"/>
  <outline>
    <contour>
      <point x="170" y="0" type="line"/>
      <point x="170" y="1456" type="line"/>
      <point x="1294" y="1456" type="line"/>
      <point x="1294" y="1298" type="line"/>
      <point x="362" y="1298" type="line"/>
      <point x="362" y="158" type="line"/>
      <point x="1304" y="158" type="line"/>
      <point x="1304" y="0" type="line"/>
    </contour>
    <contour>
      <point x="272" y="672" type="line"/>
      <point x="272" y="830" type="line"/>
      <point x="1202" y="830" type="line"/>
      <point x="1202" y="672" type="line"/>
    </contour>
  </outline>
</glyph>
<glyph name="H" format="2">
  <advance width="1741"/>
  <unicode hex="0048"/>
  <anchor x="729" y="0" name="bottom"/>
  <anchor x="729" y="1100" name="center"/>
  <anchor x="729" y="1456" name="top"/>
  <anchor x="1194" y="0" name="cy_descender"/>
  <anchor x="-75" y="1074" name="tonos"/>
  <outline>
    <contour>
      <point x="170" y="0" type="line"/>
      <point x="170" y="1456" type="line"/>
      <point x="362" y="1456" type="line"/>
      <point x="362" y="0" type="line"/>
    </contour>
    <contour>
      <point x="272" y="672" type="line"/>
      <point x="272" y="830" type="line"/>
      <point x="1476" y="830" type="line"/>
      <point x="1476" y="672" type="line"/>
    </contour>
    <contour>
      <point x="1379" y="0" type="line"/>
      <point x="1379" y="1456" type="line"/>
      <point x="1571" y="1456" type="line"/>
      <point x="1571" y="0" type="line"/>
    </contour>
  </outline>
</glyph>
<glyph name="J" format="2">
  <advance width="1307"/>
  <unicode hex="004A"/>
  <anchor x="550" y="0" name="bottom"/>
  <anchor x="854" y="1456" name="top"/>
  <outline>
    <contour>
      <point x="25" y="400" type="qcurve" smooth="yes"/>
      <point x="25" y="410" type="line"/>
      <point x="217" y="410" type="line"/>
      <point x="217" y="400" type="line" smooth="yes"/>
      <point x="217" y="270"/>
      <point x="415" y="134"/>
      <point x="588" y="134" type="qcurve" smooth="yes"/>
      <point x="762" y="134"/>
      <point x="960" y="285"/>
      <point x="960" y="425" type="qcurve" smooth="yes"/>
      <point x="960" y="1456" type="line"/>
      <point x="1152" y="1456" type="line"/>
      <point x="1152" y="425" type="line" smooth="yes"/>
      <point x="1152" y="215"/>
      <point x="840" y="-30"/>
      <point x="589" y="-30" type="qcurve" smooth="yes"/>
      <point x="337" y="-30"/>
      <point x="25" y="200"/>
    </contour>
  </outline>
</glyph>
<glyph name="K" format="2">
  <advance width="1539"/>
  <unicode hex="004B"/>
  <anchor x="633" y="0" name="bottom"/>
  <anchor x="633" y="1456" name="top"/>
  <outline>
    <contour>
      <point x="170" y="0" type="line"/>
      <point x="170" y="1456" type="line"/>
      <point x="362" y="1456" type="line"/>
      <point x="362" y="0" type="line"/>
    </contour>
    <contour>
      <point x="1286" y="0" type="line"/>
      <point x="554" y="757" type="line"/>
      <point x="693" y="881" type="line"/>
      <point x="1559" y="0" type="line"/>
    </contour>
    <contour>
      <point x="268" y="396" type="line"/>
      <point x="268" y="615" type="line"/>
      <point x="1228" y="1456" type="line"/>
      <point x="1475" y="1456" type="line"/>
    </contour>
  </outline>
</glyph>
<glyph name="L" format="2">
  <advance width="1447"/>
  <unicode hex="004C"/>
  <anchor x="630" y="0" name="bottom"/>
  <anchor x="860" y="728" name="center"/>
  <anchor x="384" y="1456" name="top"/>
  <anchor x="749" y="1052" name="topright"/>
  <outline>
    <contour>
      <point x="170" y="0" type="line"/>
      <point x="170" y="1456" type="line"/>
      <point x="362" y="1456" type="line"/>
      <point x="362" y="158" type="line"/>
      <point x="1393" y="158" type="line"/>
      <point x="1393" y="0" type="line"/>
    </contour>
  </outline>
</glyph>
<glyph name="M" format="2">
  <advance width="2208"/>
  <unicode hex="004D"/>
  <anchor x="1096" y="0" name="bottom"/>
  <anchor x="1096" y="1456" name="top"/>
  <outline>
    <contour>
      <point x="170" y="0" type="line"/>
      <point x="170" y="1456" type="line"/>
      <point x="418" y="1456" type="line"/>
      <point x="1050" y="287" type="line" smooth="yes"/>
      <point x="1066" y="258"/>
      <point x="1083" y="192"/>
      <point x="1091" y="162" type="qcurve"/>
      <point x="1099" y="162" type="line"/>
      <point x="1107" y="192"/>
      <point x="1125" y="259"/>
      <point x="1140" y="287" type="qcurve" smooth="yes"/>
      <point x="1790" y="1456" type="line"/>
      <point x="2038" y="1456" type="line"/>
      <point x="2038" y="0" type="line"/>
      <point x="1852" y="0" type="line"/>
      <point x="1852" y="1141" type="line" smooth="yes"/>
      <point x="1852" y="1171"/>
      <point x="1854" y="1246"/>
      <point x="1858" y="1276" type="qcurve"/>
      <point x="1850" y="1276" type="line"/>
      <point x="1844" y="1246"/>
      <point x="1823" y="1169"/>
      <point x="1808" y="1141" type="qcurve" smooth="yes"/>
      <point x="1176" y="0" type="line"/>
      <point x="1010" y="0" type="line"/>
      <point x="396" y="1141" type="line" smooth="yes"/>
      <point x="380" y="1171"/>
      <point x="360" y="1246"/>
      <point x="354" y="1276" type="qcurve"/>
      <point x="346" y="1276" type="line"/>
      <point x="350" y="1246"/>
      <point x="352" y="1171"/>
      <point x="352" y="1141" type="qcurve" smooth="yes"/>
      <point x="352" y="0" type="line"/>
    </contour>
  </outline>
</glyph>
<glyph name="N" format="2">
  <advance width="1742"/>
  <unicode hex="004E"/>
  <anchor x="730" y="0" name="bottom"/>
  <anchor x="730" y="1456" name="top"/>
  <anchor x="1197" y="0" name="engtail"/>
  <outline>
    <contour>
      <point x="170" y="0" type="line"/>
      <point x="170" y="1456" type="line"/>
      <point x="370" y="1456" type="line"/>
      <point x="1311" y="354" type="line" smooth="yes"/>
      <point x="1335" y="325"/>
      <point x="1366" y="264"/>
      <point x="1378" y="239" type="qcurve"/>
      <point x="1386" y="239" type="line"/>
      <point x="1385" y="269"/>
      <point x="1384" y="344"/>
      <point x="1384" y="374" type="qcurve" smooth="yes"/>
      <point x="1384" y="1456" type="line"/>
      <point x="1572" y="1456" type="line"/>
      <point x="1572" y="0" type="line"/>
      <point x="1372" y="0" type="line"/>
      <point x="431" y="1102" type="line" smooth="yes"/>
      <point x="407" y="1131"/>
      <point x="377" y="1192"/>
      <point x="363" y="1217" type="qcurve"/>
      <point x="356" y="1217" type="line"/>
      <point x="357" y="1187"/>
      <point x="358" y="1112"/>
      <point x="358" y="1082" type="qcurve" smooth="yes"/>
      <point x="358" y="0" type="line"/>
    </contour>
  </outline>
</glyph>
<glyph name="O" format="2">
  <advance width="1784"/>
  <unicode hex="004F"/>
  <anchor x="893" y="0" name="bottom"/>
  <anchor x="893" y="728" name="center"/>
  <anchor x="1136" y="0" name="ogonek"/>
  <anchor x="893" y="1456" name="top"/>
  <anchor x="1130" y="1456" name="topright"/>
  <anchor x="25" y="1074" name="tonos"/>
  <anchor x="309" y="746" name="yu_dash"/>
  <outline>
    <contour>
      <point x="115" y="720" type="qcurve" smooth="yes"/>
      <point x="115" y="736" type="line" smooth="yes"/>
      <point x="115" y="1090"/>
      <point x="551" y="1486"/>
      <point x="892" y="1486" type="qcurve" smooth="yes"/>
      <point x="1233" y="1486"/>
      <point x="1669" y="1090"/>
      <point x="1669" y="736" type="qcurve" smooth="yes"/>
      <point x="1669" y="720" type="line" smooth="yes"/>
      <point x="1669" y="366"/>
      <point x="1233" y="-30"/>
      <point x="892" y="-30" type="qcurve" smooth="yes"/>
      <point x="551" y="-30"/>
      <point x="115" y="366"/>
    </contour>
    <contour>
      <point x="309" y="710" type="line" smooth="yes"/>
      <point x="309" y="441"/>
      <point x="629" y="134"/>
      <point x="892" y="134" type="qcurve" smooth="yes"/>
      <point x="1155" y="134"/>
      <point x="1475" y="441"/>
      <point x="1475" y="710" type="qcurve" smooth="yes"/>
      <point x="1475" y="746" type="line" smooth="yes"/>
      <point x="1475" y="1015"/>
      <point x="1155" y="1322"/>
      <point x="892" y="1322" type="qcurve" smooth="yes"/>
      <point x="629" y="1322"/>
      <point x="309" y="1015"/>
      <point x="309" y="746" type="qcurve" smooth="yes"/>
    </contour>
  </outline>
</glyph>
<glyph name="P" format="2">
  <advance width="1439"/>
  <unicode hex="0050"/>
  <anchor x="600" y="0" name="bottom"/>
  <anchor x="600" y="1456" name="top"/>
  <outline>
    <contour>
      <point x="170" y="0" type="line"/>
      <point x="170" y="1456" type="line"/>
      <point x="881" y="1456" type="line" smooth="yes"/>
      <point x="1121" y="1456"/>
      <point x="1379" y="1215"/>
      <point x="1379" y="1015" type="qcurve" smooth="yes"/>
      <point x="1379" y="815"/>
      <point x="1121" y="570"/>
      <point x="881" y="570" type="qcurve" smooth="yes"/>
      <point x="272" y="570" type="line"/>
      <point x="272" y="728" type="line"/>
      <point x="860" y="728" type="line" smooth="yes"/>
      <point x="1042" y="728"/>
      <point x="1187" y="895"/>
      <point x="1187" y="1015" type="qcurve" smooth="yes"/>
      <point x="1187" y="1135"/>
      <point x="1042" y="1298"/>
      <point x="860" y="1298" type="qcurve" smooth="yes"/>
      <point x="362" y="1298" type="line"/>
      <point x="362" y="0" type="line"/>
    </contour>
  </outline>
</glyph>
<glyph name="Q" format="2">
  <advance width="1784"/>
  <unicode hex="0051"/>
  <anchor x="730" y="0" name="bottom"/>
  <anchor x="730" y="1456" name="top"/>
  <outline>
    <contour>
      <point x="115" y="720" type="qcurve" smooth="yes"/>
      <point x="115" y="736" type="line" smooth="yes"/>
      <point x="115" y="1090"/>
      <point x="551" y="1486"/>
      <point x="892" y="1486" type="qcurve" smooth="yes"/>
      <point x="1233" y="1486"/>
      <point x="1669" y="1090"/>
      <point x="1669" y="736" type="qcurve" smooth="yes"/>
      <point x="1669" y="720" type="line" smooth="yes"/>
      <point x="1669" y="366"/>
      <point x="1233" y="-30"/>
      <point x="892" y="-30" type="qcurve" smooth="yes"/>
      <point x="551" y="-30"/>
      <point x="115" y="366"/>
    </contour>
    <contour>
      <point x="309" y="710" type="line" smooth="yes"/>
      <point x="309" y="441"/>
      <point x="629" y="134"/>
      <point x="892" y="134" type="qcurve" smooth="yes"/>
      <point x="1155" y="134"/>
      <point x="1475" y="441"/>
      <point x="1475" y="710" type="qcurve" smooth="yes"/>
      <point x="1475" y="746" type="line" smooth="yes"/>
      <point x="1475" y="1015"/>
      <point x="1155" y="1322"/>
      <point x="892" y="1322" type="qcurve" smooth="yes"/>
      <point x="629" y="1322"/>
      <point x="309" y="1015"/>
      <point x="309" y="746" type="qcurve" smooth="yes"/>
    </contour>
    <contour>
      <point x="1518" y="-250" type="line"/>
      <point x="1168" y="30" type="line"/>
      <point x="1293" y="155" type="line"/>
      <point x="1648" y="-120" type="line"/>
    </contour>
  </outline>
</glyph>
<glyph name="S" format="2">
  <advance width="1476"/>
  <unicode hex="0053"/>
  <anchor x="719" y="0" name="bottom"/>
  <anchor x="719" y="1456" name="top"/>
  <outline>
    <contour>
      <point x="90" y="398" type="qcurve" smooth="yes"/>
      <point x="90" y="410" type="line"/>
      <point x="282" y="410" type="line"/>
      <point x="282" y="398" type="line" smooth="yes"/>
      <point x="282" y="266"/>
      <point x="527" y="134"/>
      <point x="747" y="134" type="qcurve" smooth="yes"/>
      <point x="968" y="134"/>
      <point x="1202" y="270"/>
      <point x="1202" y="380" type="qcurve" smooth="yes"/>
      <point x="1202" y="480"/>
      <point x="988" y="590"/>
      <point x="669" y="675" type="qcurve" smooth="yes"/>
      <point x="350" y="760"/>
      <point x="116" y="921"/>
      <point x="116" y="1091" type="qcurve" smooth="yes"/>
      <point x="116" y="1261"/>
      <point x="437" y="1487"/>
      <point x="721" y="1487" type="qcurve" smooth="yes"/>
      <point x="1005" y="1487"/>
      <point x="1340" y="1249"/>
      <point x="1340" y="1065" type="qcurve" smooth="yes"/>
      <point x="1340" y="1053" type="line"/>
      <point x="1144" y="1053" type="line"/>
      <point x="1144" y="1065" type="line" smooth="yes"/>
      <point x="1144" y="1181"/>
      <point x="930" y="1323"/>
      <point x="718" y="1323" type="qcurve" smooth="yes"/>
      <point x="507" y="1323"/>
      <point x="306" y="1201"/>
      <point x="306" y="1096" type="qcurve" smooth="yes"/>
      <point x="306" y="1001"/>
      <point x="477" y="917"/>
      <point x="797" y="839" type="qcurve" smooth="yes"/>
      <point x="1117" y="761"/>
      <point x="1396" y="560"/>
      <point x="1396" y="380" type="qcurve" smooth="yes"/>
      <point x="1396" y="200"/>
      <point x="1063" y="-30"/>
      <point x="760" y="-30" type="qcurve" smooth="yes"/>
      <point x="457" y="-30"/>
      <point x="90" y="200"/>
    </contour>
  </outline>
</glyph>
<glyph name="T" format="2">
  <advance width="1536"/>
  <unicode hex="0054"/>
  <anchor x="588" y="0" name="bottom"/>
  <anchor x="588" y="728" name="center"/>
  <anchor x="588" y="1456" name="top"/>
  <anchor x="588" y="0" name="cy_descender"/>
  <outline>
    <contour>
      <point x="672" y="0" type="line"/>
      <point x="672" y="1378" type="line"/>
      <point x="864" y="1378" type="line"/>
      <point x="864" y="0" type="line"/>
    </contour>
    <contour>
      <point x="24" y="1298" type="line"/>
      <point x="24" y="1456" type="line"/>
      <point x="1512" y="1456" type="line"/>
      <point x="1512" y="1298" type="line"/>
    </contour>
  </outline>
</glyph>
<glyph name="U" format="2">
  <advance width="1622"/>
  <unicode hex="0055"/>
  <anchor x="682" y="0" name="bottom"/>
  <anchor x="879" y="0" name="ogonek"/>
  <anchor x="682" y="1456" name="top"/>
  <anchor x="1117" y="1456" name="topright"/>
  <outline>
    <contour>
      <point x="155" y="470" type="qcurve" smooth="yes"/>
      <point x="155" y="1456" type="line"/>
      <point x="347" y="1456" type="line"/>
      <point x="347" y="470" type="line" smooth="yes"/>
      <point x="347" y="300"/>
      <point x="603" y="134"/>
      <point x="811" y="134" type="qcurve" smooth="yes"/>
      <point x="1019" y="134"/>
      <point x="1275" y="300"/>
      <point x="1275" y="470" type="qcurve" smooth="yes"/>
      <point x="1275" y="1456" type="line"/>
      <point x="1467" y="1456" type="line"/>
      <point x="1467" y="470" type="line" smooth="yes"/>
      <point x="1467" y="220"/>
      <point x="1085" y="-30"/>
      <point x="811" y="-30" type="qcurve" smooth="yes"/>
      <point x="537" y="-30"/>
      <point x="155" y="220"/>
    </contour>
    <contour>
      <point x="1275" y="1490" type="move"/>
      <point x="1275" y="568" type="line"/>
    </contour>
  </outline>
</glyph>
<glyph name="V" format="2">
  <advance width="1602"/>
  <unicode hex="0056"/>
  <anchor x="805" y="0" name="bottom"/>
  <anchor x="805" y="1456" name="top"/>
  <outline>
    <contour>
      <point x="0" y="1456" type="line"/>
      <point x="204" y="1456" type="line"/>
      <point x="758" y="278" type="line" smooth="yes"/>
      <point x="773" y="247"/>
      <point x="789" y="192"/>
      <point x="795" y="164" type="qcurve"/>
      <point x="804" y="164" type="line"/>
      <point x="808" y="192"/>
      <point x="827" y="247"/>
      <point x="842" y="278" type="qcurve" smooth="yes"/>
      <point x="1406" y="1456" type="line"/>
      <point x="1602" y="1456" type="line"/>
      <point x="888" y="-10" type="line"/>
      <point x="716" y="-10" type="line"/>
    </contour>
  </outline>
</glyph>
<glyph name="X" format="2">
  <advance width="1533"/>
  <unicode hex="0058"/>
  <anchor x="760" y="0" name="bottom"/>
  <anchor x="760" y="1456" name="top"/>
  <anchor x="1282" y="0" name="cy_descender"/>
  <outline>
    <contour>
      <point x="25" y="0" type="line"/>
      <point x="710" y="806" type="line"/>
      <point x="728" y="806" type="line"/>
      <point x="1247" y="1456" type="line"/>
      <point x="1485" y="1456" type="line"/>
      <point x="819" y="670" type="line"/>
      <point x="800" y="670" type="line"/>
      <point x="263" y="0" type="line"/>
    </contour>
    <contour>
      <point x="50" y="1456" type="line"/>
      <point x="266" y="1456" type="line"/>
      <point x="796" y="806" type="line"/>
      <point x="809" y="806" type="line"/>
      <point x="1508" y="0" type="line"/>
      <point x="1266" y="0" type="line"/>
      <point x="715" y="670" type="line"/>
      <point x="702" y="670" type="line"/>
    </contour>
  </outline>
</glyph>
<glyph name="Y" format="2">
  <advance width="1528"/>
  <unicode hex="0059"/>
  <anchor x="765" y="0" name="bottom"/>
  <anchor x="765" y="1456" name="top"/>
  <anchor x="-175" y="1074" name="tonos"/>
  <outline>
    <contour>
      <point x="668" y="0" type="line"/>
      <point x="668" y="544" type="line"/>
      <point x="15" y="1456" type="line"/>
      <point x="231" y="1456" type="line"/>
      <point x="709" y="780" type="line" smooth="yes"/>
      <point x="729" y="752"/>
      <point x="752" y="700"/>
      <point x="763" y="673" type="qcurve"/>
      <point x="769" y="673" type="line"/>
      <point x="780" y="700"/>
      <point x="803" y="753"/>
      <point x="823" y="780" type="qcurve" smooth="yes"/>
      <point x="1305" y="1456" type="line"/>
      <point x="1513" y="1456" type="line"/>
      <point x="860" y="544" type="line"/>
      <point x="860" y="0" type="line"/>
    </contour>
  </outline>
</glyph>
<glyph name="Z" format="2">
  <advance width="1432"/>
  <unicode hex="005A"/>
  <anchor x="595" y="0" name="bottom"/>
  <anchor x="595" y="1456" name="top"/>
  <outline>
    <contour>
      <point x="65" y="0" type="line"/>
      <point x="65" y="140" type="line"/>
      <point x="1085" y="1298" type="line"/>
      <point x="77" y="1298" type="line"/>
      <point x="77" y="1456" type="line"/>
      <point x="1334" y="1456" type="line"/>
      <point x="1334" y="1316" type="line"/>
      <point x="314" y="158" type="line"/>
      <point x="1366" y="158" type="line"/>
      <point x="1366" y="0" type="line"/>
    </contour>
  </outline>
</glyph>
<glyph name="a" format="2">
  <advance width="1297"/>
  <unicode hex="0061"/>
  <anchor x="744" y="0" name="bottom"/>
  <anchor x="1160" y="0" name="ogonek"/>
  <anchor x="744" y="1052" name="top"/>
  <outline>
    <contour>
      <point x="549" y="-20" type="qcurve" smooth="yes"/>
      <point x="358" y="-20"/>
      <point x="90" y="150"/>
      <point x="90" y="310" type="qcurve" smooth="yes"/>
      <point x="90" y="470"/>
      <point x="414" y="648"/>
      <point x="664" y="648" type="qcurve" smooth="yes"/>
      <point x="1059" y="648" type="line"/>
      <point x="1059" y="516" type="line"/>
      <point x="668" y="516" type="line" smooth="yes"/>
      <point x="475" y="516"/>
      <point x="277" y="410"/>
      <point x="277" y="320" type="qcurve" smooth="yes"/>
      <point x="277" y="230"/>
      <point x="420" y="128"/>
      <point x="572" y="128" type="qcurve" smooth="yes"/>
      <point x="724" y="128"/>
      <point x="969" y="280"/>
      <point x="969" y="365" type="qcurve"/>
      <point x="969" y="720" type="line" smooth="yes"/>
      <point x="968" y="815"/>
      <point x="834" y="934"/>
      <point x="668" y="934" type="qcurve" smooth="yes"/>
      <point x="503" y="934"/>
      <point x="361" y="837"/>
      <point x="361" y="770" type="qcurve" smooth="yes"/>
      <point x="361" y="765" type="line"/>
      <point x="176" y="765" type="line"/>
      <point x="176" y="770" type="line" smooth="yes"/>
      <point x="176" y="895"/>
      <point x="445" y="1082"/>
      <point x="674" y="1082" type="qcurve" smooth="yes"/>
      <point x="902" y="1082"/>
      <point x="1155" y="900"/>
      <point x="1155" y="720" type="qcurve" smooth="yes"/>
      <point x="1155" y="240" type="line" smooth="yes"/>
      <point x="1155" y="175"/>
      <point x="1175" y="60"/>
      <point x="1193" y="16" type="qcurve"/>
      <point x="1193" y="0" type="line"/>
      <point x="1013" y="0" type="line"/>
      <point x="999" y="25"/>
      <point x="976" y="105"/>
      <point x="972" y="145" type="qcurve"/>
      <point x="925" y="80"/>
      <point x="715" y="-20"/>
    </contour>
  </outline>
</glyph>
<glyph name="b" format="2">
  <advance width="1386"/>
  <unicode hex="0062"/>
  <anchor x="720" y="0" name="bottom"/>
  <anchor x="720" y="1536" name="top"/>
  <outline>
    <contour>
      <point x="148" y="0" type="line"/>
      <point x="148" y="1536" type="line"/>
      <point x="334" y="1536" type="line"/>
      <point x="334" y="137" type="line"/>
      <point x="324" y="137" type="line"/>
      <point x="316" y="0" type="line"/>
    </contour>
    <contour>
      <point x="720" y="132" type="qcurve" smooth="yes"/>
      <point x="925" y="132"/>
      <point x="1111" y="350"/>
      <point x="1111" y="510" type="qcurve" smooth="yes"/>
      <point x="1111" y="542" type="line" smooth="yes"/>
      <point x="1111" y="702"/>
      <point x="925" y="920"/>
      <point x="720" y="920" type="qcurve" smooth="yes"/>
      <point x="527" y="920"/>
      <point x="291" y="698"/>
      <point x="291" y="549" type="qcurve" smooth="yes"/>
      <point x="291" y="521" type="line" smooth="yes"/>
      <point x="291" y="348"/>
      <point x="534" y="132"/>
    </contour>
    <contour>
      <point x="751" y="-20" type="qcurve" smooth="yes"/>
      <point x="509" y="-20"/>
      <point x="224" y="265"/>
      <point x="224" y="520" type="qcurve" smooth="yes"/>
      <point x="224" y="554" type="line" smooth="yes"/>
      <point x="224" y="774"/>
      <point x="489" y="1072"/>
      <point x="751" y="1072" type="qcurve" smooth="yes"/>
      <point x="1001" y="1072"/>
      <point x="1301" y="772"/>
      <point x="1301" y="542" type="qcurve" smooth="yes"/>
      <point x="1301" y="510" type="line" smooth="yes"/>
      <point x="1301" y="280"/>
      <point x="1001" y="-20"/>
    </contour>
  </outline>
</glyph>
<glyph name="g" format="2">
  <advance width="1386"/>
  <unicode hex="0067"/>
  <anchor x="690" y="-416" name="bottom"/>
  <anchor x="690" y="1052" name="top"/>
  <outline>
    <contour>
      <point x="653" y="-436" type="qcurve" smooth="yes"/>
      <point x="491" y="-436"/>
      <point x="218" y="-350"/>
      <point x="124" y="-284" type="qcurve"/>
      <point x="241" y="-144" type="line"/>
      <point x="301" y="-195"/>
      <point x="519" y="-274"/>
      <point x="655" y="-274" type="qcurve" smooth="yes"/>
      <point x="839" y="-274"/>
      <point x="1052" y="-120"/>
      <point x="1052" y="20" type="qcurve" smooth="yes"/>
      <point x="1052" y="915" type="line"/>
      <point x="1056" y="915" type="line"/>
      <point x="1064" y="1052" type="line"/>
      <point x="1238" y="1052" type="line"/>
      <point x="1238" y="20" type="line" smooth="yes"/>
      <point x="1238" y="-200"/>
      <point x="913" y="-436"/>
    </contour>
    <contour>
      <point x="669" y="132" type="qcurve" smooth="yes"/>
      <point x="860" y="132"/>
      <point x="1095" y="354"/>
      <point x="1095" y="503" type="qcurve" smooth="yes"/>
      <point x="1095" y="531" type="line" smooth="yes"/>
      <point x="1095" y="704"/>
      <point x="853" y="920"/>
      <point x="669" y="920" type="qcurve" smooth="yes"/>
      <point x="465" y="920"/>
      <point x="275" y="702"/>
      <point x="275" y="542" type="qcurve" smooth="yes"/>
      <point x="275" y="510" type="line" smooth="yes"/>
      <point x="275" y="350"/>
      <point x="465" y="132"/>
    </contour>
    <contour>
      <point x="635" y="-20" type="qcurve" smooth="yes"/>
      <point x="385" y="-20"/>
      <point x="85" y="280"/>
      <point x="85" y="510" type="qcurve" smooth="yes"/>
      <point x="85" y="542" type="line" smooth="yes"/>
      <point x="85" y="772"/>
      <point x="385" y="1072"/>
      <point x="635" y="1072" type="qcurve" smooth="yes"/>
      <point x="887" y="1072"/>
      <point x="1162" y="769"/>
      <point x="1162" y="531" type="qcurve" smooth="yes"/>
      <point x="1162" y="505" type="line" smooth="yes"/>
      <point x="1162" y="282"/>
      <point x="886" y="-20"/>
    </contour>
  </outline>
</glyph>
<glyph name="h" format="2">
  <advance width="1323"/>
  <unicode hex="0068"/>
  <anchor x="661" y="0" name="bottom"/>
  <anchor x="320" y="1327" name="center"/>
  <anchor x="244" y="1536" name="top"/>
  <anchor x="1094" y="0" name="engtail"/>
  <outline>
    <contour>
      <point x="334" y="0" type="line"/>
      <point x="148" y="0" type="line"/>
      <point x="148" y="1536" type="line"/>
      <point x="334" y="1536" type="line"/>
    </contour>
    <contour>
      <point x="240" y="787" type="line"/>
      <point x="327" y="926"/>
      <point x="587" y="1072"/>
      <point x="765" y="1072" type="qcurve" smooth="yes"/>
      <point x="949" y="1072"/>
      <point x="1185" y="891"/>
      <point x="1185" y="679" type="qcurve" smooth="yes"/>
      <point x="1185" y="0" type="line"/>
      <point x="999" y="0" type="line"/>
      <point x="999" y="681" type="line" smooth="yes"/>
      <point x="999" y="807"/>
      <point x="849" y="916"/>
      <point x="710" y="916" type="qcurve" smooth="yes"/>
      <point x="547" y="916"/>
      <point x="332" y="742"/>
      <point x="240" y="579" type="qcurve"/>
    </contour>
  </outline>
</glyph>
<glyph name="k" format="2">
  <advance width="1226"/>
  <unicode hex="006B"/>
  <anchor x="514" y="0" name="bottom"/>
  <anchor x="514" y="1536" name="top"/>
  <outline>
    <contour>
      <point x="148" y="0" type="line"/>
      <point x="148" y="1536" type="line"/>
      <point x="334" y="1536" type="line"/>
      <point x="334" y="0" type="line"/>
    </contour>
    <contour>
      <point x="1024" y="0" type="line"/>
      <point x="549" y="566" type="line"/>
      <point x="677" y="678" type="line"/>
      <point x="1242" y="0" type="line"/>
    </contour>
    <contour>
      <point x="241" y="193" type="line"/>
      <point x="241" y="399" type="line"/>
      <point x="967" y="1052" type="line"/>
      <point x="1193" y="1052" type="line"/>
    </contour>
  </outline>
</glyph>
<glyph name="o" format="2">
  <advance width="1398"/>
  <unicode hex="006F"/>
  <anchor x="699" y="0" name="bottom"/>
  <anchor x="699" y="526" name="center"/>
  <anchor x="923" y="0" name="ogonek"/>
  <anchor x="699" y="1052" name="top"/>
  <anchor x="915" y="1052" name="topright"/>
  <anchor x="178" y="536" name="yu_dash"/>
  <outline>
    <contour>
      <point x="85" y="521" type="qcurve" smooth="yes"/>
      <point x="85" y="531" type="line" smooth="yes"/>
      <point x="85" y="774"/>
      <point x="419" y="1082"/>
      <point x="699" y="1082" type="qcurve" smooth="yes"/>
      <point x="978" y="1082"/>
      <point x="1313" y="774"/>
      <point x="1313" y="531" type="qcurve" smooth="yes"/>
      <point x="1313" y="521" type="line" smooth="yes"/>
      <point x="1313" y="278"/>
      <point x="978" y="-30"/>
      <point x="699" y="-30" type="qcurve" smooth="yes"/>
      <point x="419" y="-30"/>
      <point x="85" y="278"/>
    </contour>
    <contour>
      <point x="275" y="533" type="qcurve" smooth="yes"/>
      <point x="275" y="519" type="line" smooth="yes"/>
      <point x="275" y="352"/>
      <point x="489" y="122"/>
      <point x="699" y="122" type="qcurve" smooth="yes"/>
      <point x="909" y="122"/>
      <point x="1123" y="352"/>
      <point x="1123" y="519" type="qcurve" smooth="yes"/>
      <point x="1123" y="533" type="line" smooth="yes"/>
      <point x="1123" y="700"/>
      <point x="910" y="930"/>
      <point x="699" y="930" type="qcurve" smooth="yes"/>
      <point x="488" y="930"/>
      <point x="275" y="700"/>
    </contour>
  </outline>
</glyph>
<glyph name="p" format="2">
  <advance width="1386"/>
  <unicode hex="0070"/>
  <anchor x="718" y="0" name="bottom"/>
  <anchor x="718" y="1052" name="top"/>
  <outline>
    <contour>
      <point x="148" y="-416" type="line"/>
      <point x="148" y="1052" type="line"/>
      <point x="316" y="1052" type="line"/>
      <point x="324" y="915" type="line"/>
      <point x="334" y="915" type="line"/>
      <point x="334" y="-416" type="line"/>
    </contour>
    <contour>
      <point x="717" y="132" type="qcurve" smooth="yes"/>
      <point x="921" y="132"/>
      <point x="1111" y="350"/>
      <point x="1111" y="510" type="qcurve" smooth="yes"/>
      <point x="1111" y="542" type="line" smooth="yes"/>
      <point x="1111" y="702"/>
      <point x="921" y="920"/>
      <point x="717" y="920" type="qcurve" smooth="yes"/>
      <point x="526" y="920"/>
      <point x="291" y="698"/>
      <point x="291" y="549" type="qcurve" smooth="yes"/>
      <point x="291" y="521" type="line" smooth="yes"/>
      <point x="291" y="348"/>
      <point x="533" y="132"/>
    </contour>
    <contour>
      <point x="751" y="-20" type="qcurve" smooth="yes"/>
      <point x="509" y="-20"/>
      <point x="224" y="265"/>
      <point x="224" y="520" type="qcurve" smooth="yes"/>
      <point x="224" y="554" type="line" smooth="yes"/>
      <point x="224" y="765"/>
      <point x="495" y="1072"/>
      <point x="751" y="1072" type="qcurve" smooth="yes"/>
      <point x="1000" y="1072"/>
      <point x="1301" y="772"/>
      <point x="1301" y="542" type="qcurve" smooth="yes"/>
      <point x="1301" y="510" type="line" smooth="yes"/>
      <point x="1301" y="280"/>
      <point x="1000" y="-20"/>
    </contour>
  </outline>
</glyph>
<glyph name="q" format="2">
  <advance width="1386"/>
  <unicode hex="0071"/>
  <anchor x="670" y="0" name="bottom"/>
  <anchor x="670" y="1052" name="top"/>
  <outline>
    <contour>
      <point x="1052" y="-416" type="line"/>
      <point x="1052" y="915" type="line"/>
      <point x="1062" y="915" type="line"/>
      <point x="1070" y="1052" type="line"/>
      <point x="1238" y="1052" type="line"/>
      <point x="1238" y="-416" type="line"/>
    </contour>
    <contour>
      <point x="669" y="132" type="qcurve" smooth="yes"/>
      <point x="860" y="132"/>
      <point x="1095" y="354"/>
      <point x="1095" y="503" type="qcurve" smooth="yes"/>
      <point x="1095" y="531" type="line" smooth="yes"/>
      <point x="1095" y="704"/>
      <point x="853" y="920"/>
      <point x="669" y="920" type="qcurve" smooth="yes"/>
      <point x="465" y="920"/>
      <point x="275" y="702"/>
      <point x="275" y="542" type="qcurve" smooth="yes"/>
      <point x="275" y="510" type="line" smooth="yes"/>
      <point x="275" y="350"/>
      <point x="465" y="132"/>
    </contour>
    <contour>
      <point x="636" y="-20" type="qcurve" smooth="yes"/>
      <point x="385" y="-20"/>
      <point x="85" y="280"/>
      <point x="85" y="510" type="qcurve" smooth="yes"/>
      <point x="85" y="542" type="line" smooth="yes"/>
      <point x="85" y="772"/>
      <point x="385" y="1072"/>
      <point x="636" y="1072" type="qcurve" smooth="yes"/>
      <point x="887" y="1072"/>
      <point x="1162" y="769"/>
      <point x="1162" y="531" type="qcurve" smooth="yes"/>
      <point x="1162" y="505" type="line" smooth="yes"/>
      <point x="1162" y="282"/>
      <point x="886" y="-20"/>
    </contour>
  </outline>
</glyph>
<glyph name="r" format="2">
  <advance width="829"/>
  <unicode hex="0072"/>
  <anchor x="350" y="0" name="bottom"/>
  <anchor x="417" y="1052" name="top"/>
  <outline>
    <contour>
      <point x="148" y="0" type="line"/>
      <point x="148" y="1052" type="line"/>
      <point x="316" y="1052" type="line"/>
      <point x="334" y="740" type="line"/>
      <point x="334" y="0" type="line"/>
    </contour>
    <contour>
      <point x="241" y="538" type="qcurve"/>
      <point x="241" y="726" type="line"/>
      <point x="352" y="955"/>
      <point x="573" y="1082"/>
      <point x="696" y="1082" type="qcurve" smooth="yes"/>
      <point x="725" y="1082"/>
      <point x="786" y="1072"/>
      <point x="799" y="1068" type="qcurve"/>
      <point x="799" y="896" type="line"/>
      <point x="773" y="900"/>
      <point x="716" y="904"/>
      <point x="682" y="904" type="qcurve" smooth="yes"/>
      <point x="553" y="904"/>
      <point x="361" y="780"/>
    </contour>
  </outline>
</glyph>
<glyph name="s" format="2">
  <advance width="1197"/>
  <unicode hex="0073"/>
  <anchor x="505" y="0" name="bottom"/>
  <anchor x="505" y="1052" name="top"/>
  <outline>
    <contour>
      <point x="80" y="310" type="line"/>
      <point x="266" y="310" type="line"/>
      <point x="266" y="305" type="line" smooth="yes"/>
      <point x="266" y="214"/>
      <point x="452" y="122"/>
      <point x="605" y="122" type="qcurve" smooth="yes"/>
      <point x="757" y="122"/>
      <point x="934" y="210"/>
      <point x="934" y="280" type="qcurve" smooth="yes"/>
      <point x="934" y="350"/>
      <point x="792" y="423"/>
      <point x="556" y="463" type="qcurve" smooth="yes"/>
      <point x="320" y="503"/>
      <point x="105" y="650"/>
      <point x="105" y="780" type="qcurve" smooth="yes"/>
      <point x="105" y="910"/>
      <point x="361" y="1081"/>
      <point x="575" y="1082" type="qcurve" smooth="yes"/>
      <point x="830" y="1083"/>
      <point x="1062" y="919"/>
      <point x="1062" y="766" type="qcurve" smooth="yes"/>
      <point x="1062" y="761" type="line"/>
      <point x="877" y="761" type="line"/>
      <point x="877" y="770" type="line" smooth="yes"/>
      <point x="877" y="845"/>
      <point x="734" y="931"/>
      <point x="573" y="930" type="qcurve" smooth="yes"/>
      <point x="424" y="929"/>
      <point x="296" y="849"/>
      <point x="296" y="789" type="qcurve" smooth="yes"/>
      <point x="296" y="729"/>
      <point x="445" y="661"/>
      <point x="662" y="621" type="qcurve" smooth="yes"/>
      <point x="880" y="581"/>
      <point x="1117" y="429"/>
      <point x="1117" y="289" type="qcurve" smooth="yes"/>
      <point x="1117" y="149"/>
      <point x="853" y="-31"/>
      <point x="617" y="-31" type="qcurve"/>
      <point x="381" y="-31"/>
      <point x="80" y="153"/>
      <point x="80" y="305" type="qcurve" smooth="yes"/>
    </contour>
  </outline>
</glyph>
<glyph name="t" format="2">
  <advance width="837"/>
  <unicode hex="0074"/>
  <anchor x="398" y="0" name="bottom"/>
  <anchor x="325" y="619" name="center"/>
  <anchor x="325" y="1312" name="top"/>
  <anchor x="700" y="1052" name="topright"/>
  <outline>
    <contour>
      <point x="0" y="910" type="line"/>
      <point x="0" y="1052" type="line"/>
      <point x="787" y="1052" type="line"/>
      <point x="787" y="910" type="line"/>
    </contour>
    <contour>
      <point x="282" y="288" type="qcurve" smooth="yes"/>
      <point x="282" y="966" type="line"/>
      <point x="282" y="996" type="line"/>
      <point x="282" y="1312" type="line"/>
      <point x="468" y="1312" type="line"/>
      <point x="468" y="283" type="line" smooth="yes"/>
      <point x="468" y="201"/>
      <point x="564" y="130"/>
      <point x="635" y="130" type="qcurve" smooth="yes"/>
      <point x="668" y="130"/>
      <point x="752" y="144"/>
      <point x="785" y="156" type="qcurve"/>
      <point x="785" y="3" type="line"/>
      <point x="757" y="-10"/>
      <point x="633" y="-30"/>
      <point x="578" y="-30" type="qcurve" smooth="yes"/>
      <point x="452" y="-30"/>
      <point x="282" y="124"/>
    </contour>
  </outline>
</glyph>
<glyph name="u" format="2">
  <advance width="1323"/>
  <unicode hex="0075"/>
  <anchor x="674" y="0" name="bottom"/>
  <anchor x="1162" y="0" name="ogonek"/>
  <anchor x="674" y="1052" name="top"/>
  <anchor x="1085" y="1052" name="topright"/>
  <anchor x="1081" y="0" name="cy_descender"/>
  <outline>
    <contour>
      <point x="537" y="-20" type="qcurve" smooth="yes"/>
      <point x="327" y="-20"/>
      <point x="138" y="161"/>
      <point x="138" y="373" type="qcurve" smooth="yes"/>
      <point x="138" y="1052" type="line"/>
      <point x="324" y="1052" type="line"/>
      <point x="324" y="371" type="line" smooth="yes"/>
      <point x="324" y="245"/>
      <point x="474" y="136"/>
      <point x="611" y="136" type="qcurve" smooth="yes"/>
      <point x="729" y="136"/>
      <point x="916" y="237"/>
      <point x="1082" y="433" type="qcurve"/>
      <point x="1082" y="260" type="line"/>
      <point x="938" y="83"/>
      <point x="669" y="-20"/>
    </contour>
    <contour>
      <point x="1007" y="0" type="line"/>
      <point x="989" y="304" type="line"/>
      <point x="989" y="1052" type="line"/>
      <point x="1175" y="1052" type="line"/>
      <point x="1175" y="0" type="line"/>
    </contour>
  </outline>
</glyph>
<glyph name="v" format="2">
  <advance width="1166"/>
  <unicode hex="0076"/>
  <anchor x="587" y="0" name="bottom"/>
  <anchor x="587" y="1052" name="top"/>
  <outline>
    <contour>
      <point x="0" y="1052" type="line"/>
      <point x="180" y="1052" type="line"/>
      <point x="546" y="296" type="line" smooth="yes"/>
      <point x="565" y="257"/>
      <point x="579" y="196"/>
      <point x="583" y="166" type="qcurve"/>
      <point x="589" y="166" type="line"/>
      <point x="593" y="196"/>
      <point x="607" y="257"/>
      <point x="626" y="296" type="qcurve" smooth="yes"/>
      <point x="990" y="1052" type="line"/>
      <point x="1166" y="1052" type="line"/>
      <point x="654" y="0" type="line"/>
      <point x="512" y="0" type="line"/>
    </contour>
  </outline>
</glyph>
<glyph name="w" format="2">
  <advance width="2006"/>
  <unicode hex="0077"/>
  <anchor x="1003" y="0" name="bottom"/>
  <anchor x="1003" y="1052" name="top"/>
  <outline>
    <contour>
      <point x="25" y="1052" type="line"/>
      <point x="205" y="1052" type="line"/>
      <point x="529" y="290" type="line" smooth="yes"/>
      <point x="545" y="251"/>
      <point x="553" y="200"/>
      <point x="561" y="160" type="qcurve"/>
      <point x="567" y="160" type="line"/>
      <point x="575" y="200"/>
      <point x="586" y="251"/>
      <point x="601" y="290" type="qcurve" smooth="yes"/>
      <point x="930" y="1052" type="line"/>
      <point x="1086" y="1052" type="line"/>
      <point x="1422" y="290" type="line" smooth="yes"/>
      <point x="1439" y="251"/>
      <point x="1449" y="200"/>
      <point x="1457" y="160" type="qcurve"/>
      <point x="1463" y="160" type="line"/>
      <point x="1471" y="200"/>
      <point x="1478" y="251"/>
      <point x="1493" y="290" type="qcurve" smooth="yes"/>
      <point x="1809" y="1052" type="line"/>
      <point x="1981" y="1052" type="line"/>
      <point x="1526" y="0" type="line"/>
      <point x="1381" y="0" type="line"/>
      <point x="1052" y="730" type="line" smooth="yes"/>
      <point x="1035" y="768"/>
      <point x="1016" y="850"/>
      <point x="1006" y="890" type="qcurve"/>
      <point x="1000" y="890" type="line"/>
      <point x="990" y="850"/>
      <point x="971" y="769"/>
      <point x="954" y="730" type="qcurve" smooth="yes"/>
      <point x="625" y="0" type="line"/>
      <point x="480" y="0" type="line"/>
    </contour>
  </outline>
</glyph>
<glyph name="y" format="2">
  <advance width="1158"/>
  <unicode hex="0079"/>
  <anchor x="896" y="0" name="bottom"/>
  <anchor x="607" y="1052" name="top"/>
  <outline>
    <contour>
      <point x="138" y="-416" type="qcurve"/>
      <point x="138" y="-258" type="line"/>
      <point x="164" y="-266"/>
      <point x="228" y="-276"/>
      <point x="268" y="-276" type="qcurve" smooth="yes"/>
      <point x="338" y="-276"/>
      <point x="458" y="-171"/>
      <point x="520" y="4" type="qcurve"/>
      <point x="520" y="5" type="line"/>
      <point x="10" y="1052" type="line"/>
      <point x="199" y="1052" type="line"/>
      <point x="544" y="337" type="line" smooth="yes"/>
      <point x="563" y="297"/>
      <point x="591" y="227"/>
      <point x="601" y="197" type="qcurve"/>
      <point x="607" y="197" type="line"/>
      <point x="619" y="227"/>
      <point x="648" y="297"/>
      <point x="666" y="337" type="qcurve" smooth="yes"/>
      <point x="980" y="1052" type="line"/>
      <point x="1158" y="1052" type="line"/>
      <point x="643" y="-140" type="line" smooth="yes"/>
      <point x="583" y="-280"/>
      <point x="398" y="-436"/>
      <point x="278" y="-436" type="qcurve" smooth="yes"/>
      <point x="228" y="-436"/>
      <point x="166" y="-426"/>
    </contour>
  </outline>
</glyph>
<glyph name="z" format="2">
  <advance width="1189"/>
  <unicode hex="007A"/>
  <anchor x="496" y="0" name="bottom"/>
  <anchor x="496" y="1052" name="top"/>
  <outline>
    <contour>
      <point x="70" y="0" type="line"/>
      <point x="70" y="136" type="line"/>
      <point x="832" y="900" type="line"/>
      <point x="78" y="900" type="line"/>
      <point x="78" y="1052" type="line"/>
      <point x="1086" y="1052" type="line"/>
      <point x="1086" y="919" type="line"/>
      <point x="292" y="152" type="line"/>
      <point x="1125" y="152" type="line"/>
      <point x="1125" y="0" type="line"/>
    </contour>
  </outline>
</glyph>
<glyph name="braceleft" format="2">
  <advance width="942"/>
  <unicode hex="007B"/>
  <outline>
    <contour>
      <point x="912" y="-312" type="line"/>
      <point x="596" y="-312"/>
      <point x="310" y="-32"/>
      <point x="347" y="123" type="qcurve" smooth="yes"/>
      <point x="397" y="334" type="line" smooth="yes"/>
      <point x="422" y="441"/>
      <point x="241" y="508"/>
      <point x="64" y="508" type="qcurve"/>
      <point x="64" y="640" type="line"/>
      <point x="241" y="640"/>
      <point x="422" y="707"/>
      <point x="397" y="814" type="qcurve" smooth="yes"/>
      <point x="347" y="1025" type="line" smooth="yes"/>
      <point x="310" y="1180"/>
      <point x="596" y="1460"/>
      <point x="912" y="1460" type="qcurve"/>
      <point x="912" y="1314" type="line"/>
      <point x="705" y="1314"/>
      <point x="504" y="1146"/>
      <point x="533" y="1025" type="qcurve" smooth="yes"/>
      <point x="583" y="814" type="line" smooth="yes"/>
      <point x="603" y="730"/>
      <point x="511" y="600"/>
      <point x="413" y="574" type="qcurve"/>
      <point x="511" y="548"/>
      <point x="603" y="418"/>
      <point x="583" y="334" type="qcurve" smooth="yes"/>
      <point x="533" y="123" type="line" smooth="yes"/>
      <point x="504" y="2"/>
      <point x="705" y="-166"/>
      <point x="912" y="-166" type="qcurve"/>
    </contour>
  </outline>
</glyph>
<glyph name="asciitilde" format="2">
  <advance width="1332"/>
  <unicode hex="007E"/>
  <outline>
    <contour>
      <point x="59" y="532" type="qcurve"/>
      <point x="59" y="734" type="line"/>
      <point x="120" y="785"/>
      <point x="292" y="842"/>
      <point x="376" y="843" type="qcurve" smooth="yes"/>
      <point x="479" y="844"/>
      <point x="599" y="801"/>
      <point x="680" y="770" type="qcurve" smooth="yes"/>
      <point x="757" y="740"/>
      <point x="868" y="701"/>
      <point x="964" y="701" type="qcurve" smooth="yes"/>
      <point x="1048" y="701"/>
      <point x="1211" y="769"/>
      <point x="1272" y="829" type="qcurve"/>
      <point x="1272" y="626" type="line"/>
      <point x="1211" y="575"/>
      <point x="1050" y="517"/>
      <point x="965" y="517" type="qcurve" smooth="yes"/>
      <point x="869" y="517"/>
      <point x="758" y="556"/>
      <point x="682" y="586" type="qcurve" smooth="yes"/>
      <point x="600" y="617"/>
      <point x="479" y="659"/>
      <point x="376" y="659" type="qcurve" smooth="yes"/>
      <point x="292" y="659"/>
      <point x="120" y="592"/>
    </contour>
  </outline>
</glyph>
<glyph name="gravecomb" format="2">
  <unicode hex="0300"/>
  <anchor x="0" y="1052" name="_top"/>
  <anchor x="0" y="1599" name="top"/>
  <outline>
    <contour>
      <point x="176" y="1215" type="line"/>
      <point x="-337" y="1443" type="line"/>
      <point x="-246" y="1596" type="line"/>
      <point x="249" y="1325" type="line"/>
    </contour>
  </outline>
</glyph>
<glyph name="dotbelowcomb" format="2">
  <unicode hex="0323"/>
  <anchor x="0" y="0" name="_bottom"/>
  <anchor x="0" y="-418" name="bottom"/>
  <outline>
    <contour>
      <point x="-126" y="-297" type="qcurve" smooth="yes"/>
      <point x="-126" y="-246"/>
      <point x="-61" y="-176"/>
      <point x="0" y="-176" type="qcurve" smooth="yes"/>
      <point x="61" y="-176"/>
      <point x="126" y="-246"/>
      <point x="126" y="-297" type="qcurve" smooth="yes"/>
      <point x="126" y="-348"/>
      <point x="61" y="-418"/>
      <point x="0" y="-418" type="qcurve" smooth="yes"/>
      <point x="-61" y="-418"/>
      <point x="-126" y="-348"/>
    </contour>
  </outline>
</glyph>
<glyph name="eight.prop" format="2">
  <advance width="1375"/>
  <outline>
    <contour>
      <point x="104" y="386" type="qcurve" smooth="yes"/>
      <point x="104" y="516"/>
      <point x="280" y="701"/>
      <point x="418" y="746" type="qcurve"/>
      <point x="418" y="750" type="line"/>
      <point x="312" y="793"/>
      <point x="160" y="967"/>
      <point x="160" y="1087" type="qcurve" smooth="yes"/>
      <point x="160" y="1267"/>
      <point x="468" y="1486"/>
      <point x="689" y="1486" type="qcurve" smooth="yes"/>
      <point x="911" y="1486"/>
      <point x="1215" y="1269"/>
      <point x="1215" y="1087" type="qcurve" smooth="yes"/>
      <point x="1215" y="967"/>
      <point x="1064" y="793"/>
      <point x="959" y="750" type="qcurve"/>
      <point x="959" y="746" type="line"/>
      <point x="1096" y="701"/>
      <point x="1271" y="516"/>
      <point x="1271" y="386" type="qcurve" smooth="yes"/>
      <point x="1271" y="188"/>
      <point x="936" y="-30"/>
      <point x="689" y="-30" type="qcurve" smooth="yes"/>
      <point x="443" y="-30"/>
      <point x="104" y="188"/>
    </contour>
    <contour>
      <point x="292" y="396" type="qcurve" smooth="yes"/>
      <point x="292" y="276"/>
      <point x="509" y="128"/>
      <point x="689" y="128" type="qcurve" smooth="yes"/>
      <point x="869" y="128"/>
      <point x="1083" y="276"/>
      <point x="1083" y="396" type="qcurve" smooth="yes"/>
      <point x="1083" y="516"/>
      <point x="869" y="666"/>
      <point x="689" y="666" type="qcurve" smooth="yes"/>
      <point x="509" y="666"/>
      <point x="292" y="516"/>
    </contour>
    <contour>
      <point x="350" y="1077" type="qcurve" smooth="yes"/>
      <point x="350" y="967"/>
      <point x="537" y="824"/>
      <point x="689" y="824" type="qcurve" smooth="yes"/>
      <point x="841" y="824"/>
      <point x="1025" y="967"/>
      <point x="1025" y="1077" type="qcurve" smooth="yes"/>
      <point x="1025" y="1187"/>
      <point x="841" y="1328"/>
      <point x="689" y="1328" type="qcurve" smooth="yes"/>
      <point x="537" y="1328"/>
      <point x="350" y="1187"/>
    </contour>
  </outline>
</glyph>
<glyph name="five.prop" format="2">
  <advance width="1292"/>
  <outline>
    <contour>
      <point x="58" y="365" type="qcurve" smooth="yes"/>
      <point x="58" y="375" type="line"/>
      <point x="243" y="375" type="line"/>
      <point x="243" y="365" type="line" smooth="yes"/>
      <point x="243" y="255"/>
      <point x="457" y="128"/>
      <point x="636" y="128" type="qcurve" smooth="yes"/>
      <point x="815" y="128"/>
      <point x="1044" y="305"/>
      <point x="1044" y="465" type="qcurve" smooth="yes"/>
      <point x="1044" y="625"/>
      <point x="815" y="793"/>
      <point x="636" y="793" type="qcurve" smooth="yes"/>
      <point x="513" y="793"/>
      <point x="323" y="728"/>
      <point x="240" y="668" type="qcurve"/>
      <point x="108" y="730" type="line"/>
      <point x="229" y="1456" type="line"/>
      <point x="1131" y="1456" type="line"/>
      <point x="1131" y="1286" type="line"/>
      <point x="365" y="1286" type="line"/>
      <point x="294" y="876" type="line"/>
      <point x="344" y="906"/>
      <point x="575" y="952"/>
      <point x="673" y="952" type="qcurve" smooth="yes"/>
      <point x="907" y="952"/>
      <point x="1234" y="695"/>
      <point x="1234" y="465" type="qcurve" smooth="yes"/>
      <point x="1234" y="235"/>
      <point x="895" y="-30"/>
      <point x="636" y="-30" type="qcurve" smooth="yes"/>
      <point x="378" y="-30"/>
      <point x="58" y="195"/>
    </contour>
  </outline>
</glyph>
<glyph name="jdotless" format="2">
  <advance width="500"/>
  <anchor x="250" y="-436" name="bottom"/>
  <anchor x="250" y="1052" name="top"/>
  <outline>
    <contour>
      <point x="-207" y="-403" type="qcurve"/>
      <point x="-207" y="-251" type="line"/>
      <point x="-178" y="-260"/>
      <point x="-71" y="-280"/>
      <point x="-27" y="-280" type="qcurve" smooth="yes"/>
      <point x="60" y="-280"/>
      <point x="157" y="-178"/>
      <point x="157" y="-62" type="qcurve" smooth="yes"/>
      <point x="157" y="1052" type="line"/>
      <point x="343" y="1052" type="line"/>
      <point x="343" y="-1" type="line" smooth="yes"/>
      <point x="343" y="-227"/>
      <point x="168" y="-436"/>
      <point x="0" y="-436" type="qcurve" smooth="yes"/>
      <point x="-51" y="-436"/>
      <point x="-175" y="-415"/>
    </contour>
  </outline>
</glyph>
<glyph name="two.prop" format="2">
  <advance width="1203"/>
  <outline>
    <contour>
      <point x="26" y="0" type="line"/>
      <point x="26" y="140" type="line"/>
      <point x="686" y="700" type="line" smooth="yes"/>
      <point x="824" y="817"/>
      <point x="962" y="980"/>
      <point x="962" y="1080" type="qcurve" smooth="yes"/>
      <point x="962" y="1180"/>
      <point x="776" y="1328"/>
      <point x="610" y="1328" type="qcurve" smooth="yes"/>
      <point x="444" y="1328"/>
      <point x="216" y="1170"/>
      <point x="216" y="1030" type="qcurve" smooth="yes"/>
      <point x="216" y="1020" type="line"/>
      <point x="26" y="1020" type="line"/>
      <point x="26" y="1030" type="line" smooth="yes"/>
      <point x="26" y="1230"/>
      <point x="363" y="1486"/>
      <point x="607" y="1486" type="qcurve" smooth="yes"/>
      <point x="853" y="1486"/>
      <point x="1153" y="1250"/>
      <point x="1153" y="1090" type="qcurve" smooth="yes"/>
      <point x="1153" y="948"/>
      <point x="959" y="714"/>
      <point x="815" y="595" type="qcurve" smooth="yes"/>
      <point x="287" y="156" type="line"/>
      <point x="1201" y="156" type="line"/>
      <point x="1201" y="0" type="line"/>
    </contour>
  </outline>
</glyph>
<glyph name="zero.prop" format="2">
  <advance width="1367"/>
  <outline>
    <contour>
      <point x="110" y="586" type="qcurve" smooth="yes"/>
      <point x="110" y="872" type="line" smooth="yes"/>
      <point x="110" y="1174"/>
      <point x="414" y="1486"/>
      <point x="683" y="1486" type="qcurve" smooth="yes"/>
      <point x="950" y="1486"/>
      <point x="1257" y="1174"/>
      <point x="1257" y="872" type="qcurve" smooth="yes"/>
      <point x="1257" y="586" type="line" smooth="yes"/>
      <point x="1257" y="282"/>
      <point x="950" y="-30"/>
      <point x="683" y="-30" type="qcurve" smooth="yes"/>
      <point x="414" y="-30"/>
      <point x="110" y="282"/>
    </contour>
    <contour>
      <point x="304" y="548" type="line" smooth="yes"/>
      <point x="304" y="365"/>
      <point x="490" y="128"/>
      <point x="683" y="128" type="qcurve" smooth="yes"/>
      <point x="877" y="128"/>
      <point x="1063" y="365"/>
      <point x="1063" y="548" type="qcurve" smooth="yes"/>
      <point x="1063" y="908" type="line" smooth="yes"/>
      <point x="1063" y="1091"/>
      <point x="877" y="1328"/>
      <point x="683" y="1328" type="qcurve" smooth="yes"/>
      <point x="490" y="1328"/>
      <point x="304" y="1091"/>
      <point x="304" y="908" type="qcurve" smooth="yes"/>
    </contour>
  </outline>
</glyph>
